<svg xmlns="http://www.w3.org/2000/svg" version="1.1" xmlns:xlink="http://www.w3.org/1999/xlink" xmlns:svgjs="http://svgjs.dev/svgjs" width="1500" height="1500" viewBox="0 0 1500 1500"><g transform="matrix(1,0,0,1,-0.323615160350073,-0.3236151603499593)"><svg viewBox="0 0 343 343" data-background-color="#000000" preserveAspectRatio="xMidYMid meet" height="1500" width="1500" xmlns="http://www.w3.org/2000/svg" xmlns:xlink="http://www.w3.org/1999/xlink"><g id="tight-bounds" transform="matrix(1,0,0,1,0.0740000000000407,0.07400000000001228)"><svg viewBox="0 0 342.85155851775386 342.85155851775386" height="342.85155851775386" width="342.85155851775386"><rect width="342.852" height="342.852" fill="url(#b855a832-395e-44fa-b9a8-c4d9b9d4e4b0)" mask="url(#57579a04-ad12-45e8-a178-d9444be44348)" data-fill-palette-color="tertiary"></rect><g><svg></svg></g><g><svg viewBox="0 0 342.85155851775386 342.85155851775386" height="342.85155851775386" width="342.85155851775386"><g><path d="M0 171.426c0-94.676 76.75-171.426 171.426-171.426 94.676 0 171.426 76.75 171.426 171.426 0 94.676-76.75 171.426-171.426 171.426-94.676 0-171.426-76.75-171.426-171.426zM171.426 337.158c91.531 0 165.732-74.201 165.732-165.732 0-91.531-74.201-165.732-165.732-165.733-91.531 0-165.732 74.201-165.733 165.733 0 91.531 74.201 165.732 165.733 165.732z" data-fill-palette-color="tertiary" fill="url(#b855a832-395e-44fa-b9a8-c4d9b9d4e4b0)" stroke="transparent"></path><ellipse rx="164.56874808852186" ry="164.56874808852186" cx="171.42577925887693" cy="171.42577925887693" fill="url(#b855a832-395e-44fa-b9a8-c4d9b9d4e4b0)" stroke="transparent" stroke-width="0" fill-opacity="1" data-fill-palette-color="tertiary"></ellipse></g><g transform="matrix(1,0,0,1,64.84655864529837,104.30021173005512)"><svg viewBox="0 0 213.1584412271571 134.2511350576436" height="134.2511350576436" width="213.1584412271571"><g><svg viewBox="0 0 213.1584412271571 134.2511350576436" height="134.2511350576436" width="213.1584412271571"><g><svg viewBox="0 0 213.1584412271571 134.2511350576436" height="134.2511350576436" width="213.1584412271571"><g><svg viewBox="0 0 213.1584412271571 134.2511350576436" height="134.2511350576436" width="213.1584412271571"><g id="textblocktransform"><svg viewBox="0 0 213.1584412271571 134.2511350576436" height="134.2511350576436" width="213.1584412271571" id="textblock"><g><svg viewBox="0 0 213.1584412271571 134.2511350576436" height="134.2511350576436" width="213.1584412271571"><g transform="matrix(1,0,0,1,0,0)"><svg width="213.1584412271571" viewBox="3.999999999999999 -40.45 160.20487849015092 91.30000000000001" height="134.2511350576436" data-palette-color="#000000"><svg></svg><svg></svg><g class="wordmark-text-0" data-fill-palette-color="quaternary" id="text-0"><path d="M26.15-10.5v-27.05c0-1.6 0.983-2.4 2.95-2.4v0c1.967 0 2.95 0.8 2.95 2.4v0 34.5c0 1.167-0.617 2.017-1.85 2.55v0h0.05c-0.533 0.233-1.1 0.417-1.7 0.55-0.6 0.133-1.183 0.2-1.75 0.2v0c-0.433 0-0.883-0.04-1.35-0.12-0.467-0.087-0.907-0.223-1.32-0.41-0.42-0.18-0.803-0.43-1.15-0.75-0.353-0.313-0.63-0.703-0.83-1.17v0l-10.85-27.05-1.35 0.15v27c0 1.6-1 2.4-3 2.4v0c-1.967 0-2.95-0.8-2.95-2.4v0-34.45c0-1.367 0.6-2.283 1.8-2.75v0c1.1-0.433 2.267-0.65 3.5-0.65v0c0.867 0 1.743 0.173 2.63 0.52 0.88 0.353 1.553 1.013 2.02 1.98v0l10.8 27.1zM44.55-22.15v14.15c0 0.8 0.26 1.55 0.78 2.25 0.513 0.7 1.387 1.05 2.62 1.05v0h6.25c1.233 0 2.11-0.31 2.63-0.93 0.513-0.613 0.77-1.32 0.77-2.12v0-0.55c0-1.567 0.917-2.35 2.75-2.35v0c1.833 0 2.75 0.783 2.75 2.35v0 0.6c0 1.4-0.227 2.55-0.68 3.45-0.447 0.9-1.12 1.683-2.02 2.35v0c-1.767 1.267-3.533 1.9-5.3 1.9v0h-8.4c-1.767 0-3.483-0.633-5.15-1.9v0c-0.8-0.667-1.417-1.507-1.85-2.52-0.433-1.02-0.65-2.197-0.65-3.53v0-14.25c0-2.7 0.833-4.7 2.5-6v0c0.833-0.6 1.693-1.077 2.58-1.43 0.88-0.347 1.737-0.52 2.57-0.52v0h8.4c0.8 0 1.683 0.157 2.65 0.47 0.967 0.32 1.867 0.747 2.7 1.28v0c0.8 0.567 1.443 1.35 1.93 2.35 0.48 1 0.72 2.183 0.72 3.55v0 6.75c0 0.767-0.227 1.45-0.68 2.05-0.447 0.6-1.27 0.9-2.47 0.9v0h-10.8c-1.2 0-1.833-0.783-1.9-2.35v0c0-1.567 0.633-2.35 1.9-2.35v0h8.5l-0.05-4.65c0-0.833-0.257-1.593-0.77-2.28-0.52-0.68-1.397-1.02-2.63-1.02v0h-6.25c-1.233 0-2.107 0.34-2.62 1.02-0.52 0.687-0.78 1.447-0.78 2.28zM85.5 0h-5.95c-1.2 0-1.833-0.783-1.9-2.35v0c0-1.567 0.633-2.35 1.9-2.35v0h5.05c1.233 0 2.11-0.35 2.63-1.05 0.513-0.7 0.77-1.45 0.77-2.25v0-14.1c0-0.833-0.257-1.61-0.77-2.33-0.52-0.713-1.413-1.037-2.68-0.97v0h-9.6v30.05c0 1.567-0.917 2.35-2.75 2.35v0c-1.833 0-2.75-0.8-2.75-2.4v0-31.75c0-1.167 0.3-1.95 0.9-2.35 0.6-0.4 1.333-0.6 2.2-0.6v0h12.95c0.867 0 1.743 0.15 2.63 0.45 0.88 0.3 1.787 0.717 2.72 1.25v0c0.8 0.567 1.443 1.357 1.93 2.37 0.48 1.02 0.72 2.213 0.72 3.58v0 14.8c0 2.733-0.883 4.683-2.65 5.85v0c-1.867 1.2-3.65 1.8-5.35 1.8zM113.85 0h-6.55c-1.033 0-2.017-0.143-2.95-0.43-0.933-0.28-1.833-0.687-2.7-1.22v0 0.05c-1.633-1.033-2.45-2.933-2.45-5.7v0-2.45c0-1.367 0.24-2.56 0.72-3.58 0.487-1.013 1.163-1.82 2.03-2.42v0h-0.05c0.833-0.567 1.717-0.993 2.65-1.28 0.933-0.28 1.833-0.42 2.7-0.42v0h11.05v-4.65c0-0.833-0.257-1.593-0.77-2.28-0.52-0.68-1.397-1.02-2.63-1.02v0h-5.85c-1.267 0-2.14 0.307-2.62 0.92-0.487 0.62-0.73 1.347-0.73 2.18v0 0.4c0 1.733-0.933 2.6-2.8 2.6v0c-1.867 0-2.8-0.867-2.8-2.6v0-0.45c0-1.367 0.243-2.517 0.73-3.45 0.48-0.933 1.137-1.717 1.97-2.35v0h-0.05c0.867-0.567 1.777-1.033 2.73-1.4 0.947-0.367 1.853-0.55 2.72-0.55v0h7.6c0.833 0 1.727 0.183 2.68 0.55 0.947 0.367 1.837 0.833 2.67 1.4v0h-0.05c0.867 0.633 1.533 1.457 2 2.47 0.467 1.02 0.7 2.197 0.7 3.53v0 20.05c0 1.6-0.917 2.4-2.75 2.4v0c-0.367 0-0.707-0.017-1.02-0.05-0.32-0.033-0.603-0.127-0.85-0.28-0.253-0.147-0.453-0.363-0.6-0.65-0.153-0.28-0.23-0.653-0.23-1.12v0l-0.05-10.95h-10.1c-0.733 0-1.3 0.083-1.7 0.25-0.4 0.167-0.717 0.433-0.95 0.8v0c-0.267 0.567-0.457 1.007-0.57 1.32-0.12 0.32-0.18 0.68-0.18 1.08v0 1.95c0 0.867 0.26 1.523 0.78 1.97 0.513 0.453 1.403 0.68 2.67 0.68v0h5.6c1.233 0 1.85 0.783 1.85 2.35v0c0 0.667-0.15 1.223-0.45 1.67-0.3 0.453-0.767 0.68-1.4 0.68zM135.95-37.8v35.85c0 1.567-0.917 2.35-2.75 2.35v0c-1.867 0-2.8-0.783-2.8-2.35v0-35.85c0-1.567 0.933-2.35 2.8-2.35v0c1.833 0 2.75 0.783 2.75 2.35zM148.5-27.9v25.8c0 1.6-0.917 2.4-2.75 2.4v0c-1.867 0-2.8-0.8-2.8-2.4v0-25.8c0-1.6 0.933-2.4 2.8-2.4v0c1.833 0 2.75 0.8 2.75 2.4zM149.55-36.6v0c0 1.067-0.367 1.967-1.1 2.7-0.733 0.733-1.633 1.1-2.7 1.1v0c-1.067 0-1.973-0.367-2.72-1.1-0.753-0.733-1.13-1.633-1.13-2.7v0c0-1.1 0.377-2.017 1.13-2.75 0.747-0.733 1.653-1.1 2.72-1.1v0c1.067 0 1.967 0.367 2.7 1.1 0.733 0.733 1.1 1.65 1.1 2.75z" fill="#000000" fill-rule="nonzero" stroke="none" stroke-width="1" stroke-linecap="butt" stroke-linejoin="miter" stroke-miterlimit="10" stroke-dasharray="" stroke-dashoffset="0" font-family="none" font-weight="none" font-size="none" text-anchor="none" style="mix-blend-mode: normal" data-fill-palette-color="quaternary" opacity="1"></path><path d="M24.75 42.05v-6.35c0-0.767-0.283-1.51-0.85-2.23-0.567-0.713-1.567-1.12-3-1.22v0c-0.933 1.133-2.067 1.7-3.4 1.7v0c-1.133 0-2.1-0.4-2.9-1.2-0.8-0.8-1.2-1.783-1.2-2.95v0c0-1.167 0.4-2.15 1.2-2.95 0.8-0.8 1.767-1.2 2.9-1.2v0c0.6 0 1.193 0.167 1.78 0.5 0.58 0.333 1.103 0.733 1.57 1.2v0c0.733-0.033 1.3-0.15 1.7-0.35 0.4-0.2 0.693-0.443 0.88-0.73 0.18-0.28 0.287-0.603 0.32-0.97 0.033-0.367 0.05-0.733 0.05-1.1v0-5.05c0-0.833-0.257-1.6-0.77-2.3-0.52-0.7-1.397-1.05-2.63-1.05v0h-10.45l-0.05 33c0 0.667-0.31 1.173-0.93 1.52-0.613 0.353-1.287 0.53-2.02 0.53v0c-1.967 0-2.95-0.8-2.95-2.4v0-34.7c0-1.2 0.31-2 0.93-2.4 0.613-0.4 1.353-0.6 2.22-0.6v0h14.5c0.867 0 1.793 0.167 2.78 0.5 0.98 0.333 1.903 0.783 2.77 1.35v0h-0.05c0.867 0.633 1.51 1.467 1.93 2.5 0.413 1.033 0.62 2.233 0.62 3.6v0 5.65c0 1.333-0.283 2.423-0.85 3.27-0.567 0.853-1.167 1.53-1.8 2.03v0c0.433 0.267 0.85 0.54 1.25 0.82 0.4 0.287 0.733 0.597 1 0.93v0c0.433 0.467 0.777 1.017 1.03 1.65 0.247 0.633 0.37 1.383 0.37 2.25v0 7.15c0 2.733-1.067 4.75-3.2 6.05v0c-1.067 0.667-2.073 1.167-3.02 1.5-0.953 0.333-1.897 0.5-2.83 0.5v0h-7.4c-0.567 0-1.007-0.233-1.32-0.7-0.32-0.467-0.48-1.083-0.48-1.85v0c0-1.667 0.7-2.5 2.1-2.5v0h6.85c1.233 0 2.1-0.35 2.6-1.05 0.5-0.7 0.75-1.483 0.75-2.35zM51.85 50.45h-6.55c-1.033 0-2.017-0.143-2.95-0.43-0.933-0.28-1.833-0.687-2.7-1.22v0 0.05c-1.633-1.033-2.45-2.933-2.45-5.7v0-2.45c0-1.367 0.243-2.56 0.73-3.58 0.48-1.013 1.153-1.82 2.02-2.42v0h-0.05c0.833-0.567 1.717-0.993 2.65-1.28 0.933-0.28 1.833-0.42 2.7-0.42v0h11.05v-4.65c0-0.833-0.257-1.593-0.77-2.28-0.52-0.68-1.397-1.02-2.63-1.02v0h-5.85c-1.267 0-2.14 0.307-2.62 0.92-0.487 0.62-0.73 1.347-0.73 2.18v0 0.4c0 1.733-0.933 2.6-2.8 2.6v0c-1.867 0-2.8-0.867-2.8-2.6v0-0.45c0-1.367 0.243-2.517 0.73-3.45 0.48-0.933 1.137-1.717 1.97-2.35v0h-0.05c0.867-0.567 1.777-1.033 2.73-1.4 0.947-0.367 1.853-0.55 2.72-0.55v0h7.6c0.833 0 1.727 0.183 2.68 0.55 0.947 0.367 1.837 0.833 2.67 1.4v0h-0.05c0.867 0.633 1.533 1.457 2 2.47 0.467 1.02 0.7 2.197 0.7 3.53v0 20.05c0 1.6-0.917 2.4-2.75 2.4v0c-0.367 0-0.707-0.017-1.02-0.05-0.32-0.033-0.603-0.127-0.85-0.28-0.253-0.147-0.453-0.363-0.6-0.65-0.153-0.28-0.23-0.653-0.23-1.12v0l-0.05-10.95h-10.1c-0.733 0-1.3 0.083-1.7 0.25-0.4 0.167-0.717 0.433-0.95 0.8v0c-0.267 0.567-0.457 1.007-0.57 1.32-0.12 0.32-0.18 0.68-0.18 1.08v0 1.95c0 0.867 0.26 1.523 0.78 1.97 0.513 0.453 1.403 0.68 2.67 0.68v0h5.6c1.233 0 1.85 0.783 1.85 2.35v0c0 0.667-0.15 1.223-0.45 1.67-0.3 0.453-0.767 0.68-1.4 0.68zM81.5 25.05h-13.6c-1.2 0-1.833-0.783-1.9-2.35v0c0-1.567 0.633-2.35 1.9-2.35v0h17.35c1.067 0 1.91 0.173 2.53 0.52 0.613 0.353 0.953 0.83 1.02 1.43v0c0.033 0.533 0.027 1.067-0.02 1.6-0.053 0.533-0.18 0.933-0.38 1.2v0l-15.35 20.65h14.15c1.2 0 1.8 0.783 1.8 2.35v0c0.067 0.8-0.067 1.39-0.4 1.77-0.333 0.387-0.8 0.58-1.4 0.58v0h-17.95c-2.167 0-3.333-0.633-3.5-1.9v0c-0.1-1.167 0.017-2.117 0.35-2.85v0zM106.5 25.05h-13.6c-1.2 0-1.833-0.783-1.9-2.35v0c0-1.567 0.633-2.35 1.9-2.35v0h17.35c1.067 0 1.91 0.173 2.53 0.52 0.613 0.353 0.953 0.83 1.02 1.43v0c0.033 0.533 0.027 1.067-0.02 1.6-0.053 0.533-0.18 0.933-0.38 1.2v0l-15.35 20.65h14.15c1.2 0 1.8 0.783 1.8 2.35v0c0.067 0.8-0.067 1.39-0.4 1.77-0.333 0.387-0.8 0.58-1.4 0.58v0h-17.95c-2.167 0-3.333-0.633-3.5-1.9v0c-0.1-1.167 0.017-2.117 0.35-2.85v0zM132.35 50.45h-6.55c-1.033 0-2.017-0.143-2.95-0.43-0.933-0.28-1.833-0.687-2.7-1.22v0 0.05c-1.633-1.033-2.45-2.933-2.45-5.7v0-2.45c0-1.367 0.24-2.56 0.72-3.58 0.487-1.013 1.163-1.82 2.03-2.42v0h-0.05c0.833-0.567 1.717-0.993 2.65-1.28 0.933-0.28 1.833-0.42 2.7-0.42v0h11.05v-4.65c0-0.833-0.257-1.593-0.77-2.28-0.52-0.68-1.397-1.02-2.63-1.02v0h-5.85c-1.267 0-2.14 0.307-2.62 0.92-0.487 0.62-0.73 1.347-0.73 2.18v0 0.4c0 1.733-0.933 2.6-2.8 2.6v0c-1.867 0-2.8-0.867-2.8-2.6v0-0.45c0-1.367 0.243-2.517 0.73-3.45 0.48-0.933 1.137-1.717 1.97-2.35v0h-0.05c0.867-0.567 1.777-1.033 2.73-1.4 0.947-0.367 1.853-0.55 2.72-0.55v0h7.6c0.833 0 1.723 0.183 2.67 0.55 0.953 0.367 1.847 0.833 2.68 1.4v0h-0.05c0.867 0.633 1.533 1.457 2 2.47 0.467 1.02 0.7 2.197 0.7 3.53v0 20.05c0 1.6-0.917 2.4-2.75 2.4v0c-0.367 0-0.707-0.017-1.02-0.05-0.32-0.033-0.603-0.127-0.85-0.28-0.253-0.147-0.457-0.363-0.61-0.65-0.147-0.28-0.22-0.653-0.22-1.12v0l-0.05-10.95h-10.1c-0.733 0-1.3 0.083-1.7 0.25-0.4 0.167-0.717 0.433-0.95 0.8v0c-0.267 0.567-0.457 1.007-0.57 1.32-0.12 0.32-0.18 0.68-0.18 1.08v0 1.95c0 0.867 0.26 1.523 0.78 1.97 0.513 0.453 1.403 0.68 2.67 0.68v0h5.6c1.233 0 1.85 0.783 1.85 2.35v0c0 0.667-0.15 1.223-0.45 1.67-0.3 0.453-0.767 0.68-1.4 0.68zM154.15 27.7v20.65c0 1.6-0.917 2.4-2.75 2.4v0c-1.9 0-2.85-0.8-2.85-2.4v0-20.7c0-2.733 0.817-4.633 2.45-5.7v0c1.633-1.067 3.517-1.6 5.65-1.6v0h5.7c1.233 0 1.85 0.783 1.85 2.35v0c0.067 1.567-0.55 2.35-1.85 2.35v0h-5.3c-1.2 0-1.983 0.233-2.35 0.7-0.367 0.467-0.55 1.117-0.55 1.95z" fill="#000000" fill-rule="nonzero" stroke="none" stroke-width="1" stroke-linecap="butt" stroke-linejoin="miter" stroke-miterlimit="10" stroke-dasharray="" stroke-dashoffset="0" font-family="none" font-weight="none" font-size="none" text-anchor="none" style="mix-blend-mode: normal" data-fill-palette-color="quaternary" opacity="1"></path></g></svg></g></svg></g></svg></g></svg></g><g></g></svg></g></svg></g></svg></g></svg></g><defs></defs><mask id="57579a04-ad12-45e8-a178-d9444be44348"><g id="SvgjsG2445"><svg viewBox="0 0 342.85155851775386 342.85155851775386" height="342.85155851775386" width="342.85155851775386"><g><svg></svg></g><g><svg viewBox="0 0 342.85155851775386 342.85155851775386" height="342.85155851775386" width="342.85155851775386"><g><path d="M0 171.426c0-94.676 76.75-171.426 171.426-171.426 94.676 0 171.426 76.75 171.426 171.426 0 94.676-76.75 171.426-171.426 171.426-94.676 0-171.426-76.75-171.426-171.426zM171.426 337.158c91.531 0 165.732-74.201 165.732-165.732 0-91.531-74.201-165.732-165.732-165.733-91.531 0-165.732 74.201-165.733 165.733 0 91.531 74.201 165.732 165.733 165.732z" fill="white" stroke="transparent"></path><ellipse rx="164.56874808852186" ry="164.56874808852186" cx="171.42577925887693" cy="171.42577925887693" fill="white" stroke="transparent" stroke-width="0" fill-opacity="1"></ellipse></g><g transform="matrix(1,0,0,1,64.84655864529837,104.30021173005512)"><svg viewBox="0 0 213.1584412271571 134.2511350576436" height="134.2511350576436" width="213.1584412271571"><g><svg viewBox="0 0 213.1584412271571 134.2511350576436" height="134.2511350576436" width="213.1584412271571"><g><svg viewBox="0 0 213.1584412271571 134.2511350576436" height="134.2511350576436" width="213.1584412271571"><g><svg viewBox="0 0 213.1584412271571 134.2511350576436" height="134.2511350576436" width="213.1584412271571"><g id="SvgjsG2444"><svg viewBox="0 0 213.1584412271571 134.2511350576436" height="134.2511350576436" width="213.1584412271571" id="SvgjsSvg2443"><g><svg viewBox="0 0 213.1584412271571 134.2511350576436" height="134.2511350576436" width="213.1584412271571"><g transform="matrix(1,0,0,1,0,0)"><svg width="213.1584412271571" viewBox="3.999999999999999 -40.45 160.20487849015092 91.30000000000001" height="134.2511350576436" data-palette-color="#000000"><svg></svg><svg></svg><g class="wordmark-text-0" data-fill-palette-color="quaternary" id="SvgjsG2442"><path d="M26.15-10.5v-27.05c0-1.6 0.983-2.4 2.95-2.4v0c1.967 0 2.95 0.8 2.95 2.4v0 34.5c0 1.167-0.617 2.017-1.85 2.55v0h0.05c-0.533 0.233-1.1 0.417-1.7 0.55-0.6 0.133-1.183 0.2-1.75 0.2v0c-0.433 0-0.883-0.04-1.35-0.12-0.467-0.087-0.907-0.223-1.32-0.41-0.42-0.18-0.803-0.43-1.15-0.75-0.353-0.313-0.63-0.703-0.83-1.17v0l-10.85-27.05-1.35 0.15v27c0 1.6-1 2.4-3 2.4v0c-1.967 0-2.95-0.8-2.95-2.4v0-34.45c0-1.367 0.6-2.283 1.8-2.75v0c1.1-0.433 2.267-0.65 3.5-0.65v0c0.867 0 1.743 0.173 2.63 0.52 0.88 0.353 1.553 1.013 2.02 1.98v0l10.8 27.1zM44.55-22.15v14.15c0 0.8 0.26 1.55 0.78 2.25 0.513 0.7 1.387 1.05 2.62 1.05v0h6.25c1.233 0 2.11-0.31 2.63-0.93 0.513-0.613 0.77-1.32 0.77-2.12v0-0.55c0-1.567 0.917-2.35 2.75-2.35v0c1.833 0 2.75 0.783 2.75 2.35v0 0.6c0 1.4-0.227 2.55-0.68 3.45-0.447 0.9-1.12 1.683-2.02 2.35v0c-1.767 1.267-3.533 1.9-5.3 1.9v0h-8.4c-1.767 0-3.483-0.633-5.15-1.9v0c-0.8-0.667-1.417-1.507-1.85-2.52-0.433-1.02-0.65-2.197-0.65-3.53v0-14.25c0-2.7 0.833-4.7 2.5-6v0c0.833-0.6 1.693-1.077 2.58-1.43 0.88-0.347 1.737-0.52 2.57-0.52v0h8.4c0.8 0 1.683 0.157 2.65 0.47 0.967 0.32 1.867 0.747 2.7 1.28v0c0.8 0.567 1.443 1.35 1.93 2.35 0.48 1 0.72 2.183 0.72 3.55v0 6.75c0 0.767-0.227 1.45-0.68 2.05-0.447 0.6-1.27 0.9-2.47 0.9v0h-10.8c-1.2 0-1.833-0.783-1.9-2.35v0c0-1.567 0.633-2.35 1.9-2.35v0h8.5l-0.05-4.65c0-0.833-0.257-1.593-0.77-2.28-0.52-0.68-1.397-1.02-2.63-1.02v0h-6.25c-1.233 0-2.107 0.34-2.62 1.02-0.52 0.687-0.78 1.447-0.78 2.28zM85.5 0h-5.95c-1.2 0-1.833-0.783-1.9-2.35v0c0-1.567 0.633-2.35 1.9-2.35v0h5.05c1.233 0 2.11-0.35 2.63-1.05 0.513-0.7 0.77-1.45 0.77-2.25v0-14.1c0-0.833-0.257-1.61-0.77-2.33-0.52-0.713-1.413-1.037-2.68-0.97v0h-9.6v30.05c0 1.567-0.917 2.35-2.75 2.35v0c-1.833 0-2.75-0.8-2.75-2.4v0-31.75c0-1.167 0.3-1.95 0.9-2.35 0.6-0.4 1.333-0.6 2.2-0.6v0h12.95c0.867 0 1.743 0.15 2.63 0.45 0.88 0.3 1.787 0.717 2.72 1.25v0c0.8 0.567 1.443 1.357 1.93 2.37 0.48 1.02 0.72 2.213 0.72 3.58v0 14.8c0 2.733-0.883 4.683-2.65 5.85v0c-1.867 1.2-3.65 1.8-5.35 1.8zM113.85 0h-6.55c-1.033 0-2.017-0.143-2.95-0.43-0.933-0.28-1.833-0.687-2.7-1.22v0 0.05c-1.633-1.033-2.45-2.933-2.45-5.7v0-2.45c0-1.367 0.24-2.56 0.72-3.58 0.487-1.013 1.163-1.82 2.03-2.42v0h-0.05c0.833-0.567 1.717-0.993 2.65-1.28 0.933-0.28 1.833-0.42 2.7-0.42v0h11.05v-4.65c0-0.833-0.257-1.593-0.77-2.28-0.52-0.68-1.397-1.02-2.63-1.02v0h-5.85c-1.267 0-2.14 0.307-2.62 0.92-0.487 0.62-0.73 1.347-0.73 2.18v0 0.4c0 1.733-0.933 2.6-2.8 2.6v0c-1.867 0-2.8-0.867-2.8-2.6v0-0.45c0-1.367 0.243-2.517 0.73-3.45 0.48-0.933 1.137-1.717 1.97-2.35v0h-0.05c0.867-0.567 1.777-1.033 2.73-1.4 0.947-0.367 1.853-0.55 2.72-0.55v0h7.6c0.833 0 1.727 0.183 2.68 0.55 0.947 0.367 1.837 0.833 2.67 1.4v0h-0.05c0.867 0.633 1.533 1.457 2 2.47 0.467 1.02 0.7 2.197 0.7 3.53v0 20.05c0 1.6-0.917 2.4-2.75 2.4v0c-0.367 0-0.707-0.017-1.02-0.05-0.32-0.033-0.603-0.127-0.85-0.28-0.253-0.147-0.453-0.363-0.6-0.65-0.153-0.28-0.23-0.653-0.23-1.12v0l-0.05-10.95h-10.1c-0.733 0-1.3 0.083-1.7 0.25-0.4 0.167-0.717 0.433-0.95 0.8v0c-0.267 0.567-0.457 1.007-0.57 1.32-0.12 0.32-0.18 0.68-0.18 1.08v0 1.95c0 0.867 0.26 1.523 0.78 1.97 0.513 0.453 1.403 0.68 2.67 0.68v0h5.6c1.233 0 1.85 0.783 1.85 2.35v0c0 0.667-0.15 1.223-0.45 1.67-0.3 0.453-0.767 0.68-1.4 0.68zM135.95-37.8v35.85c0 1.567-0.917 2.35-2.75 2.35v0c-1.867 0-2.8-0.783-2.8-2.35v0-35.85c0-1.567 0.933-2.35 2.8-2.35v0c1.833 0 2.75 0.783 2.75 2.35zM148.5-27.9v25.8c0 1.6-0.917 2.4-2.75 2.4v0c-1.867 0-2.8-0.8-2.8-2.4v0-25.8c0-1.6 0.933-2.4 2.8-2.4v0c1.833 0 2.75 0.8 2.75 2.4zM149.55-36.6v0c0 1.067-0.367 1.967-1.1 2.7-0.733 0.733-1.633 1.1-2.7 1.1v0c-1.067 0-1.973-0.367-2.72-1.1-0.753-0.733-1.13-1.633-1.13-2.7v0c0-1.1 0.377-2.017 1.13-2.75 0.747-0.733 1.653-1.1 2.72-1.1v0c1.067 0 1.967 0.367 2.7 1.1 0.733 0.733 1.1 1.65 1.1 2.75z" fill="black" fill-rule="nonzero" stroke="none" stroke-width="1" stroke-linecap="butt" stroke-linejoin="miter" stroke-miterlimit="10" stroke-dasharray="" stroke-dashoffset="0" font-family="none" font-weight="none" font-size="none" text-anchor="none" style="mix-blend-mode: normal" opacity="1"></path><path d="M24.75 42.05v-6.35c0-0.767-0.283-1.51-0.85-2.23-0.567-0.713-1.567-1.12-3-1.22v0c-0.933 1.133-2.067 1.7-3.4 1.7v0c-1.133 0-2.1-0.4-2.9-1.2-0.8-0.8-1.2-1.783-1.2-2.95v0c0-1.167 0.4-2.15 1.2-2.95 0.8-0.8 1.767-1.2 2.9-1.2v0c0.6 0 1.193 0.167 1.78 0.5 0.58 0.333 1.103 0.733 1.57 1.2v0c0.733-0.033 1.3-0.15 1.7-0.35 0.4-0.2 0.693-0.443 0.88-0.73 0.18-0.28 0.287-0.603 0.32-0.97 0.033-0.367 0.05-0.733 0.05-1.1v0-5.05c0-0.833-0.257-1.6-0.77-2.3-0.52-0.7-1.397-1.05-2.63-1.05v0h-10.45l-0.05 33c0 0.667-0.31 1.173-0.93 1.52-0.613 0.353-1.287 0.53-2.02 0.53v0c-1.967 0-2.95-0.8-2.95-2.4v0-34.7c0-1.2 0.31-2 0.93-2.4 0.613-0.4 1.353-0.6 2.22-0.6v0h14.5c0.867 0 1.793 0.167 2.78 0.5 0.98 0.333 1.903 0.783 2.77 1.35v0h-0.05c0.867 0.633 1.51 1.467 1.93 2.5 0.413 1.033 0.62 2.233 0.62 3.6v0 5.65c0 1.333-0.283 2.423-0.85 3.27-0.567 0.853-1.167 1.53-1.8 2.03v0c0.433 0.267 0.85 0.54 1.25 0.82 0.4 0.287 0.733 0.597 1 0.93v0c0.433 0.467 0.777 1.017 1.03 1.65 0.247 0.633 0.37 1.383 0.37 2.25v0 7.15c0 2.733-1.067 4.75-3.2 6.05v0c-1.067 0.667-2.073 1.167-3.02 1.5-0.953 0.333-1.897 0.5-2.83 0.5v0h-7.4c-0.567 0-1.007-0.233-1.32-0.7-0.32-0.467-0.48-1.083-0.48-1.85v0c0-1.667 0.7-2.5 2.1-2.5v0h6.85c1.233 0 2.1-0.35 2.6-1.05 0.5-0.7 0.75-1.483 0.75-2.35zM51.85 50.45h-6.55c-1.033 0-2.017-0.143-2.95-0.43-0.933-0.28-1.833-0.687-2.7-1.22v0 0.05c-1.633-1.033-2.45-2.933-2.45-5.7v0-2.45c0-1.367 0.243-2.56 0.73-3.58 0.48-1.013 1.153-1.82 2.02-2.42v0h-0.05c0.833-0.567 1.717-0.993 2.65-1.28 0.933-0.28 1.833-0.42 2.7-0.42v0h11.05v-4.65c0-0.833-0.257-1.593-0.77-2.28-0.52-0.68-1.397-1.02-2.63-1.02v0h-5.85c-1.267 0-2.14 0.307-2.62 0.92-0.487 0.62-0.73 1.347-0.73 2.18v0 0.4c0 1.733-0.933 2.6-2.8 2.6v0c-1.867 0-2.8-0.867-2.8-2.6v0-0.45c0-1.367 0.243-2.517 0.73-3.45 0.48-0.933 1.137-1.717 1.97-2.35v0h-0.05c0.867-0.567 1.777-1.033 2.73-1.4 0.947-0.367 1.853-0.55 2.72-0.55v0h7.6c0.833 0 1.727 0.183 2.68 0.55 0.947 0.367 1.837 0.833 2.67 1.4v0h-0.05c0.867 0.633 1.533 1.457 2 2.47 0.467 1.02 0.7 2.197 0.7 3.53v0 20.05c0 1.6-0.917 2.4-2.75 2.4v0c-0.367 0-0.707-0.017-1.02-0.05-0.32-0.033-0.603-0.127-0.85-0.28-0.253-0.147-0.453-0.363-0.6-0.65-0.153-0.28-0.23-0.653-0.23-1.12v0l-0.05-10.95h-10.1c-0.733 0-1.3 0.083-1.7 0.25-0.4 0.167-0.717 0.433-0.95 0.8v0c-0.267 0.567-0.457 1.007-0.57 1.32-0.12 0.32-0.18 0.68-0.18 1.08v0 1.95c0 0.867 0.26 1.523 0.78 1.97 0.513 0.453 1.403 0.68 2.67 0.68v0h5.6c1.233 0 1.85 0.783 1.85 2.35v0c0 0.667-0.15 1.223-0.45 1.67-0.3 0.453-0.767 0.68-1.4 0.68zM81.5 25.05h-13.6c-1.2 0-1.833-0.783-1.9-2.35v0c0-1.567 0.633-2.35 1.9-2.35v0h17.35c1.067 0 1.91 0.173 2.53 0.52 0.613 0.353 0.953 0.83 1.02 1.43v0c0.033 0.533 0.027 1.067-0.02 1.6-0.053 0.533-0.18 0.933-0.38 1.2v0l-15.35 20.65h14.15c1.2 0 1.8 0.783 1.8 2.35v0c0.067 0.8-0.067 1.39-0.4 1.77-0.333 0.387-0.8 0.58-1.4 0.58v0h-17.95c-2.167 0-3.333-0.633-3.5-1.9v0c-0.1-1.167 0.017-2.117 0.35-2.85v0zM106.5 25.05h-13.6c-1.2 0-1.833-0.783-1.9-2.35v0c0-1.567 0.633-2.35 1.9-2.35v0h17.35c1.067 0 1.91 0.173 2.53 0.52 0.613 0.353 0.953 0.83 1.02 1.43v0c0.033 0.533 0.027 1.067-0.02 1.6-0.053 0.533-0.18 0.933-0.38 1.2v0l-15.35 20.65h14.15c1.2 0 1.8 0.783 1.8 2.35v0c0.067 0.8-0.067 1.39-0.4 1.77-0.333 0.387-0.8 0.58-1.4 0.58v0h-17.95c-2.167 0-3.333-0.633-3.5-1.9v0c-0.1-1.167 0.017-2.117 0.35-2.85v0zM132.35 50.45h-6.55c-1.033 0-2.017-0.143-2.95-0.43-0.933-0.28-1.833-0.687-2.7-1.22v0 0.05c-1.633-1.033-2.45-2.933-2.45-5.7v0-2.45c0-1.367 0.24-2.56 0.72-3.58 0.487-1.013 1.163-1.82 2.03-2.42v0h-0.05c0.833-0.567 1.717-0.993 2.65-1.28 0.933-0.28 1.833-0.42 2.7-0.42v0h11.05v-4.65c0-0.833-0.257-1.593-0.77-2.28-0.52-0.68-1.397-1.02-2.63-1.02v0h-5.85c-1.267 0-2.14 0.307-2.62 0.92-0.487 0.62-0.73 1.347-0.73 2.18v0 0.4c0 1.733-0.933 2.6-2.8 2.6v0c-1.867 0-2.8-0.867-2.8-2.6v0-0.45c0-1.367 0.243-2.517 0.73-3.45 0.48-0.933 1.137-1.717 1.97-2.35v0h-0.05c0.867-0.567 1.777-1.033 2.73-1.4 0.947-0.367 1.853-0.55 2.72-0.55v0h7.6c0.833 0 1.723 0.183 2.67 0.55 0.953 0.367 1.847 0.833 2.68 1.4v0h-0.05c0.867 0.633 1.533 1.457 2 2.47 0.467 1.02 0.7 2.197 0.7 3.53v0 20.05c0 1.6-0.917 2.4-2.75 2.4v0c-0.367 0-0.707-0.017-1.02-0.05-0.32-0.033-0.603-0.127-0.85-0.28-0.253-0.147-0.457-0.363-0.61-0.65-0.147-0.28-0.22-0.653-0.22-1.12v0l-0.05-10.95h-10.1c-0.733 0-1.3 0.083-1.7 0.25-0.4 0.167-0.717 0.433-0.95 0.8v0c-0.267 0.567-0.457 1.007-0.57 1.32-0.12 0.32-0.18 0.68-0.18 1.08v0 1.95c0 0.867 0.26 1.523 0.78 1.97 0.513 0.453 1.403 0.68 2.67 0.68v0h5.6c1.233 0 1.85 0.783 1.85 2.35v0c0 0.667-0.15 1.223-0.45 1.67-0.3 0.453-0.767 0.68-1.4 0.68zM154.15 27.7v20.65c0 1.6-0.917 2.4-2.75 2.4v0c-1.9 0-2.85-0.8-2.85-2.4v0-20.7c0-2.733 0.817-4.633 2.45-5.7v0c1.633-1.067 3.517-1.6 5.65-1.6v0h5.7c1.233 0 1.85 0.783 1.85 2.35v0c0.067 1.567-0.55 2.35-1.85 2.35v0h-5.3c-1.2 0-1.983 0.233-2.35 0.7-0.367 0.467-0.55 1.117-0.55 1.95z" fill="black" fill-rule="nonzero" stroke="none" stroke-width="1" stroke-linecap="butt" stroke-linejoin="miter" stroke-miterlimit="10" stroke-dasharray="" stroke-dashoffset="0" font-family="none" font-weight="none" font-size="none" text-anchor="none" style="mix-blend-mode: normal" opacity="1"></path></g></svg></g></svg></g></svg></g></svg></g><g></g></svg></g></svg></g></svg></g></svg></g><defs><mask></mask></defs></svg><rect width="342.85155851775386" height="342.85155851775386" fill="black" stroke="none" visibility="hidden"></rect></g></mask><linearGradient x1="0.054" x2="0.941" y1="0.5" y2="0.5" id="b855a832-395e-44fa-b9a8-c4d9b9d4e4b0"><stop stop-color="#9c7945" offset="0"></stop><stop stop-color="#faf3aa" offset="0.498"></stop><stop stop-color="#9c7945" offset="1"></stop></linearGradient></svg><rect width="342.85155851775386" height="342.85155851775386" fill="none" stroke="none" visibility="hidden"></rect></g></svg></g></svg>